<svg width="320" height="566" viewBox="0 0 320 566" fill="none" xmlns="http://www.w3.org/2000/svg">
<g clip-path="url(#clip0)">
<path d="M233 76.4999V32.9999L269.5 12L306 32.7295V76.4999L269.5 97.4999L233 76.4999Z" stroke="#797963"/>
<path d="M233 96.4999V52.9999L269.5 32L306 52.7295V96.4999L269.5 117.5L233 96.4999Z" stroke="#797963"/>
<path d="M160 -51.4225L196.5 -30.3337V11.8448L160 32.9337L123.5 11.8448V-30.3337L160 -51.4225Z" stroke="#797963"/>
<path d="M160 204.577L196.5 225.666V267.845L160 288.934L123.5 267.845V225.666L160 204.577Z" stroke="#797963"/>
<path d="M160 76.5775L196.5 97.6663V139.845L160 160.934L123.5 139.845V97.6663L160 76.5775Z" stroke="#797963"/>
<path d="M160 332.577L196.5 353.666V395.845L160 416.934L123.5 395.845V353.666L160 332.577Z" stroke="#797963"/>
<path d="M160 -31.4225L196.5 -10.3337V31.8448L160 52.9337L123.5 31.8448V-10.3337L160 -31.4225Z" stroke="#797963"/>
<path d="M160 224.577L196.5 245.666V287.845L160 308.934L123.5 287.845V245.666L160 224.577Z" stroke="#797963"/>
<path d="M160 96.5775L196.5 117.666V159.845L160 180.934L123.5 159.845V117.666L160 96.5775Z" stroke="#797963"/>
<path d="M160 352.577L196.5 373.666V415.845L160 436.934L123.5 415.845V373.666L160 352.577Z" stroke="#797963"/>
<path d="M160 76.5775L196.5 97.6663V139.845L160 160.934L123.5 139.845V97.6663L160 76.5775Z" stroke="#797963"/>
<path d="M160 332.577L196.5 353.666V395.845L160 416.934L123.5 395.845V353.666L160 332.577Z" stroke="#797963"/>
<path d="M160 204.577L196.5 225.666V267.845L160 288.934L123.5 267.845V225.666L160 204.577Z" stroke="#797963"/>
<path d="M160 460.577L196.5 481.666V523.845L160 544.934L123.5 523.845V481.666L160 460.577Z" stroke="#797963"/>
<path d="M160 96.5775L196.5 117.666V159.845L160 180.934L123.5 159.845V117.666L160 96.5775Z" stroke="#797963"/>
<path d="M160 352.577L196.5 373.666V415.845L160 436.934L123.5 415.845V373.666L160 352.577Z" stroke="#797963"/>
<path d="M160 224.577L196.5 245.666V287.845L160 308.934L123.5 287.845V245.666L160 224.577Z" stroke="#797963"/>
<path d="M160 480.577L196.5 501.666V543.845L160 564.934L123.5 543.845V501.666L160 480.577Z" stroke="#797963"/>
<path d="M233 -51.4225L269.5 -30.3337V11.8448L233 32.9337L196.5 11.8448V-30.3337L233 -51.4225Z" stroke="#797963"/>
<path d="M233 204.577L269.5 225.666V267.845L233 288.934L196.5 267.845V225.666L233 204.577Z" stroke="#797963"/>
<path d="M233 76.5775L269.5 97.6663V139.845L233 160.934L196.5 139.845V97.6663L233 76.5775Z" stroke="#797963"/>
<path d="M233 332.577L269.5 353.666V395.845L233 416.934L196.5 395.845V353.666L233 332.577Z" stroke="#797963"/>
<path d="M233 -31.4225L269.5 -10.3337V31.8448L233 52.9337L196.5 31.8448V-10.3337L233 -31.4225Z" stroke="#797963"/>
<path d="M233 224.577L269.5 245.666V287.845L233 308.934L196.5 287.845V245.666L233 224.577Z" stroke="#797963"/>
<path d="M233 96.5775L269.5 117.666V159.845L233 180.934L196.5 159.845V117.666L233 96.5775Z" stroke="#797963"/>
<path d="M233 352.577L269.5 373.666V415.845L233 436.934L196.5 415.845V373.666L233 352.577Z" stroke="#797963"/>
<path d="M233 76.5775L269.5 97.6663V139.845L233 160.934L196.5 139.845V97.6663L233 76.5775Z" stroke="#797963"/>
<path d="M233 332.577L269.5 353.666V395.845L233 416.934L196.5 395.845V353.666L233 332.577Z" stroke="#797963"/>
<path d="M233 204.577L269.5 225.666V267.845L233 288.934L196.5 267.845V225.666L233 204.577Z" stroke="#797963"/>
<path d="M233 460.577L269.5 481.666V523.845L233 544.934L196.5 523.845V481.666L233 460.577Z" stroke="#797963"/>
<path d="M233 96.5775L269.5 117.666V159.845L233 180.934L196.5 159.845V117.666L233 96.5775Z" stroke="#797963"/>
<path d="M233 352.577L269.5 373.666V415.845L233 436.934L196.5 415.845V373.666L233 352.577Z" stroke="#797963"/>
<path d="M233 224.577L269.5 245.666V287.845L233 308.934L196.5 287.845V245.666L233 224.577Z" stroke="#797963"/>
<path d="M233 480.577L269.5 501.666V543.845L233 564.934L196.5 543.845V501.666L233 480.577Z" stroke="#797963"/>
<path d="M306 -51.4225L342.5 -30.3337V11.8448L306 32.9337L269.5 11.8448V-30.3337L306 -51.4225Z" stroke="#797963"/>
<path d="M306 204.577L342.5 225.666V267.845L306 288.934L269.5 267.845V225.666L306 204.577Z" stroke="#797963"/>
<path d="M306 76.5775L342.5 97.6663V139.845L306 160.934L269.5 139.845V97.6663L306 76.5775Z" stroke="#797963"/>
<path d="M306 224.577L342.5 245.666V287.845L306 308.934L269.5 287.845V245.666L306 224.577Z" stroke="#797963"/>
<path d="M306 96.5775L342.5 117.666V159.845L306 180.934L269.5 159.845V117.666L306 96.5775Z" stroke="#797963"/>
<path d="M306 352.577L342.5 373.666V415.845L306 436.934L269.5 415.845V373.666L306 352.577Z" stroke="#797963"/>
<path d="M306 76.5775L342.5 97.6663V139.845L306 160.934L269.5 139.845V97.6663L306 76.5775Z" stroke="#797963"/>
<path d="M320 339.089L306 331L269 352.378V395.133L306 416.511L320 408.422" stroke="#797963"/>
<path d="M306 204.577L342.5 225.666V267.845L306 288.934L269.5 267.845V225.666L306 204.577Z" stroke="#797963"/>
<path d="M306 460.577L342.5 481.666V523.845L306 544.934L269.5 523.845V481.666L306 460.577Z" stroke="#797963"/>
<path d="M306 96.5775L342.5 117.666V159.845L306 180.934L269.5 159.845V117.666L306 96.5775Z" stroke="#797963"/>
<path d="M306 352.577L342.5 373.666V415.845L306 436.934L269.5 415.845V373.666L306 352.577Z" stroke="#797963"/>
<path d="M306 224.577L342.5 245.666V287.845L306 308.934L269.5 287.845V245.666L306 224.577Z" stroke="#797963"/>
<path d="M306 480.577L342.5 501.666V543.845L306 564.934L269.5 543.845V501.666L306 480.577Z" stroke="#797963"/>
<path d="M87 -51.4225L123.5 -30.3337V11.8448L87 32.9337L50.5 11.8448V-30.3337L87 -51.4225Z" stroke="#797963"/>
<path d="M87 204.577L123.5 225.666V267.845L87 288.934L50.5 267.845V225.666L87 204.577Z" stroke="#797963"/>
<path d="M87 76.5775L123.5 97.6663V139.845L87 160.934L50.5 139.845V97.6663L87 76.5775Z" stroke="#797963"/>
<path d="M87 332.577L123.5 353.666V395.845L87 416.934L50.5 395.845V353.666L87 332.577Z" stroke="#797963"/>
<path d="M87 -31.4225L123.5 -10.3337V31.8448L87 52.9337L50.5 31.8448V-10.3337L87 -31.4225Z" stroke="#797963"/>
<path d="M87 224.577L123.5 245.666V287.845L87 308.934L50.5 287.845V245.666L87 224.577Z" stroke="#797963"/>
<path d="M87 96.5775L123.5 117.666V159.845L87 180.934L50.5 159.845V117.666L87 96.5775Z" stroke="#797963"/>
<path d="M87 352.577L123.5 373.666V415.845L87 436.934L50.5 415.845V373.666L87 352.577Z" stroke="#797963"/>
<path d="M87 76.5775L123.5 97.6663V139.845L87 160.934L50.5 139.845V97.6663L87 76.5775Z" stroke="#797963"/>
<path d="M87 332.577L123.5 353.666V395.845L87 416.934L50.5 395.845V353.666L87 332.577Z" stroke="#797963"/>
<path d="M87 204.577L123.5 225.666V267.845L87 288.934L50.5 267.845V225.666L87 204.577Z" stroke="#797963"/>
<path d="M87 460.577L123.5 481.666V523.845L87 544.934L50.5 523.845V481.666L87 460.577Z" stroke="#797963"/>
<path d="M87 96.5775L123.5 117.666V159.845L87 180.934L50.5 159.845V117.666L87 96.5775Z" stroke="#797963"/>
<path d="M87 352.577L123.5 373.666V415.845L87 436.934L50.5 415.845V373.666L87 352.577Z" stroke="#797963"/>
<path d="M87 224.577L123.5 245.666V287.845L87 308.934L50.5 287.845V245.666L87 224.577Z" stroke="#797963"/>
<path d="M87 480.577L123.5 501.666V543.845L87 564.934L50.5 543.845V501.666L87 480.577Z" stroke="#797963"/>
<path d="M14 -51.4225L50.5 -30.3337V11.8448L14 32.9337L-22.5 11.8448V-30.3337L14 -51.4225Z" stroke="#797963"/>
<path d="M14 204.577L50.5 225.666V267.845L14 288.934L-22.5 267.845V225.666L14 204.577Z" stroke="#797963"/>
<path d="M14 76.5775L50.5 97.6663V139.845L14 160.934L-22.5 139.845V97.6663L14 76.5775Z" stroke="#797963"/>
<path d="M14 332.577L50.5 353.666V395.845L14 416.934L-22.5 395.845V353.666L14 332.577Z" stroke="#797963"/>
<path d="M14 -31.4225L50.5 -10.3337V31.8448L14 52.9337L-22.5 31.8448V-10.3337L14 -31.4225Z" stroke="#797963"/>
<path d="M14 224.577L50.5 245.666V287.845L14 308.934L-22.5 287.845V245.666L14 224.577Z" stroke="#797963"/>
<path d="M14 96.5775L50.5 117.666V159.845L14 180.934L-22.5 159.845V117.666L14 96.5775Z" stroke="#797963"/>
<path d="M14 352.577L50.5 373.666V415.845L14 436.934L-22.5 415.845V373.666L14 352.577Z" stroke="#797963"/>
<path d="M14 76.5775L50.5 97.6663V139.845L14 160.934L-22.5 139.845V97.6663L14 76.5775Z" stroke="#797963"/>
<path d="M14 332.577L50.5 353.666V395.845L14 416.934L-22.5 395.845V353.666L14 332.577Z" stroke="#797963"/>
<path d="M14 204.577L50.5 225.666V267.845L14 288.934L-22.5 267.845V225.666L14 204.577Z" stroke="#797963"/>
<path d="M14 460.577L50.5 481.666V523.845L14 544.934L-22.5 523.845V481.666L14 460.577Z" stroke="#797963"/>
<path d="M14 224.577L50.5 245.666V287.845L14 308.934L-22.5 287.845V245.666L14 224.577Z" stroke="#797963"/>
<path d="M14 480.577L50.5 501.666V543.845L14 564.934L-22.5 543.845V501.666L14 480.577Z" stroke="#797963"/>
<path d="M87 76.4999V32.9999L123.5 12L160 32.7295V76.4999L123.5 97.4999L87 76.4999Z" stroke="#797963"/>
<path d="M87 332.5V289L123.5 268L160 288.729V332.5L123.5 353.5L87 332.5Z" stroke="#797963"/>
<path d="M87 204.5V161L123.5 140L160 160.729V204.5L123.5 225.5L87 204.5Z" stroke="#797963"/>
<path d="M87 460.5V417L123.5 396L160 416.729V460.5L123.5 481.5L87 460.5Z" stroke="#797963"/>
<path d="M87 96.4999V52.9999L123.5 32L160 52.7295V96.4999L123.5 117.5L87 96.4999Z" stroke="#797963"/>
<path d="M87 352.5V309L123.5 288L160 308.729V352.5L123.5 373.5L87 352.5Z" stroke="#797963"/>
<path d="M87 224.5V181L123.5 160L160 180.729V224.5L123.5 245.5L87 224.5Z" stroke="#797963"/>
<path d="M87 480.5V437L123.5 416L160 436.729V480.5L123.5 501.5L87 480.5Z" stroke="#797963"/>
<path d="M233 332.5V289L269.5 268L306 288.729V332.5L269.5 353.5L233 332.5Z" stroke="#797963"/>
<path d="M233 204.5V161L269.5 140L306 160.729V204.5L269.5 225.5L233 204.5Z" stroke="#797963"/>
<path d="M233 460.5V417L269.5 396L306 416.729V460.5L269.5 481.5L233 460.5Z" stroke="#797963"/>
<path d="M233 352.5V309L269.5 288L306 308.729V352.5L269.5 373.5L233 352.5Z" stroke="#797963"/>
<path d="M233 224.5V181L269.5 160L306 180.729V224.5L269.5 245.5L233 224.5Z" stroke="#797963"/>
<path d="M233 480.5V437L269.5 416L306 436.729V480.5L269.5 501.5L233 480.5Z" stroke="#797963"/>
<path d="M14 76.4999V32.9999L50.5 12L87 32.7295V76.4999L50.5 97.4999L14 76.4999Z" stroke="#797963"/>
<path d="M14 332.5V289L50.5 268L87 288.729V332.5L50.5 353.5L14 332.5Z" stroke="#797963"/>
<path d="M14 204.5V161L50.5 140L87 160.729V204.5L50.5 225.5L14 204.5Z" stroke="#797963"/>
<path d="M14 460.5V417L50.5 396L87 416.729V460.5L50.5 481.5L14 460.5Z" stroke="#797963"/>
<path d="M14 96.4999V52.9999L50.5 32L87 52.7295V96.4999L50.5 117.5L14 96.4999Z" stroke="#797963"/>
<path d="M14 352.5V309L50.5 288L87 308.729V352.5L50.5 373.5L14 352.5Z" stroke="#797963"/>
<path d="M14 224.5V181L50.5 160L87 180.729V224.5L50.5 245.5L14 224.5Z" stroke="#797963"/>
<g filter="url(#filter0_i)">
<path d="M14 480.5V437L50.5 416L87 436.729V480.5L50.5 501.5L14 480.5Z" fill="#292929"/>
</g>
<path d="M14 480.5V437L50.5 416L87 436.729V480.5L50.5 501.5L14 480.5Z" stroke="#797963"/>
<path d="M160 76.4999V32.9999L196.5 12L233 32.7295V76.4999L196.5 97.4999L160 76.4999Z" stroke="#797963"/>
<path d="M160 204.5V161L196.5 140L233 160.729V204.5L196.5 225.5L160 204.5Z" stroke="#797963"/>
<path d="M160 460.5V417L196.5 396L233 416.729V460.5L196.5 481.5L160 460.5Z" stroke="#797963"/>
<path d="M160 96.4999V52.9999L196.5 32L233 52.7295V96.4999L196.5 117.5L160 96.4999Z" stroke="#797963"/>
<path d="M160 352.5V309L196.5 288L233 308.729V352.5L196.5 373.5L160 352.5Z" stroke="#797963"/>
<path d="M160 224.5V181L196.5 160L233 180.729V224.5L196.5 245.5L160 224.5Z" stroke="#797963"/>
<path d="M160 480.5V437L196.5 416L233 436.729V480.5L196.5 501.5L160 480.5Z" stroke="#797963"/>
<g filter="url(#filter1_i)">
<path d="M343 -10.6222V32.1333L306 53.5111L269 32.1333V-10.6222L306 -32L343 -10.6222Z" fill="#292929"/>
</g>
<path d="M306 -31.4225L342.5 -10.3337V31.8448L306 52.9337L269.5 31.8448V-10.3337L306 -31.4225Z" stroke="#797963"/>
<g filter="url(#filter2_i)">
<path d="M306 96.4999V52.9999L342.5 32L379 52.7295V96.4999L342.5 117.5L306 96.4999Z" fill="#292929"/>
</g>
<path d="M306 96.4999V52.9999L342.5 32L379 52.7295V96.4999L342.5 117.5L306 96.4999Z" stroke="#797963"/>
<g filter="url(#filter3_i)">
<path d="M51 117.378V160.133L14 181.511L-23 160.133V117.378L14 96L51 117.378Z" fill="#292929"/>
</g>
<path d="M14 96.5775L50.5 117.666V159.845L14 180.934L-22.5 159.845V117.666L14 96.5775Z" stroke="#797963"/>
<g filter="url(#filter4_i)">
<path d="M160 332.5V289L196.5 268L233 288.729V332.5L196.5 353.5L160 332.5Z" fill="#292929"/>
</g>
<path d="M160 332.5V289L196.5 268L233 288.729V332.5L196.5 353.5L160 332.5Z" stroke="#797963"/>
<g filter="url(#filter5_i)">
<path d="M51 373.378V416.133L14 437.511L-23 416.133V373.378L14 352L51 373.378Z" fill="#292929"/>
</g>
<path d="M14 352.577L50.5 373.666V415.845L14 436.934L-22.5 415.845V373.666L14 352.577Z" stroke="#797963"/>
</g>
<defs>
<filter id="filter0_i" x="7.5" y="415.424" width="80" height="95.6527" filterUnits="userSpaceOnUse" color-interpolation-filters="sRGB">
<feFlood flood-opacity="0" result="BackgroundImageFix"/>
<feBlend mode="normal" in="SourceGraphic" in2="BackgroundImageFix" result="shape"/>
<feColorMatrix in="SourceAlpha" type="matrix" values="0 0 0 0 0 0 0 0 0 0 0 0 0 0 0 0 0 0 127 0" result="hardAlpha"/>
<feOffset dx="-6" dy="9"/>
<feGaussianBlur stdDeviation="9.5"/>
<feComposite in2="hardAlpha" operator="arithmetic" k2="-1" k3="1"/>
<feColorMatrix type="matrix" values="0 0 0 0 0 0 0 0 0 0 0 0 0 0 0 0 0 0 0.8 0"/>
<feBlend mode="normal" in2="shape" result="effect1_innerShadow"/>
</filter>
<filter id="filter1_i" x="269" y="-32" width="80" height="99.5111" filterUnits="userSpaceOnUse" color-interpolation-filters="sRGB">
<feFlood flood-opacity="0" result="BackgroundImageFix"/>
<feBlend mode="normal" in="SourceGraphic" in2="BackgroundImageFix" result="shape"/>
<feColorMatrix in="SourceAlpha" type="matrix" values="0 0 0 0 0 0 0 0 0 0 0 0 0 0 0 0 0 0 127 0" result="hardAlpha"/>
<feOffset dx="6" dy="14"/>
<feGaussianBlur stdDeviation="9.5"/>
<feComposite in2="hardAlpha" operator="arithmetic" k2="-1" k3="1"/>
<feColorMatrix type="matrix" values="0 0 0 0 0 0 0 0 0 0 0 0 0 0 0 0 0 0 0.8 0"/>
<feBlend mode="normal" in2="shape" result="effect1_innerShadow"/>
</filter>
<filter id="filter2_i" x="305.5" y="31.4241" width="80" height="100.653" filterUnits="userSpaceOnUse" color-interpolation-filters="sRGB">
<feFlood flood-opacity="0" result="BackgroundImageFix"/>
<feBlend mode="normal" in="SourceGraphic" in2="BackgroundImageFix" result="shape"/>
<feColorMatrix in="SourceAlpha" type="matrix" values="0 0 0 0 0 0 0 0 0 0 0 0 0 0 0 0 0 0 127 0" result="hardAlpha"/>
<feOffset dx="6" dy="14"/>
<feGaussianBlur stdDeviation="9.5"/>
<feComposite in2="hardAlpha" operator="arithmetic" k2="-1" k3="1"/>
<feColorMatrix type="matrix" values="0 0 0 0 0 0 0 0 0 0 0 0 0 0 0 0 0 0 0.8 0"/>
<feBlend mode="normal" in2="shape" result="effect1_innerShadow"/>
</filter>
<filter id="filter3_i" x="-29" y="96" width="80" height="94.5111" filterUnits="userSpaceOnUse" color-interpolation-filters="sRGB">
<feFlood flood-opacity="0" result="BackgroundImageFix"/>
<feBlend mode="normal" in="SourceGraphic" in2="BackgroundImageFix" result="shape"/>
<feColorMatrix in="SourceAlpha" type="matrix" values="0 0 0 0 0 0 0 0 0 0 0 0 0 0 0 0 0 0 127 0" result="hardAlpha"/>
<feOffset dx="-6" dy="9"/>
<feGaussianBlur stdDeviation="9.5"/>
<feComposite in2="hardAlpha" operator="arithmetic" k2="-1" k3="1"/>
<feColorMatrix type="matrix" values="0 0 0 0 0 0 0 0 0 0 0 0 0 0 0 0 0 0 0.8 0"/>
<feBlend mode="normal" in2="shape" result="effect1_innerShadow"/>
</filter>
<filter id="filter4_i" x="159.5" y="267.424" width="80" height="100.653" filterUnits="userSpaceOnUse" color-interpolation-filters="sRGB">
<feFlood flood-opacity="0" result="BackgroundImageFix"/>
<feBlend mode="normal" in="SourceGraphic" in2="BackgroundImageFix" result="shape"/>
<feColorMatrix in="SourceAlpha" type="matrix" values="0 0 0 0 0 0 0 0 0 0 0 0 0 0 0 0 0 0 127 0" result="hardAlpha"/>
<feOffset dx="6" dy="14"/>
<feGaussianBlur stdDeviation="9.5"/>
<feComposite in2="hardAlpha" operator="arithmetic" k2="-1" k3="1"/>
<feColorMatrix type="matrix" values="0 0 0 0 0 0 0 0 0 0 0 0 0 0 0 0 0 0 0.8 0"/>
<feBlend mode="normal" in2="shape" result="effect1_innerShadow"/>
</filter>
<filter id="filter5_i" x="-29" y="352" width="80" height="94.5111" filterUnits="userSpaceOnUse" color-interpolation-filters="sRGB">
<feFlood flood-opacity="0" result="BackgroundImageFix"/>
<feBlend mode="normal" in="SourceGraphic" in2="BackgroundImageFix" result="shape"/>
<feColorMatrix in="SourceAlpha" type="matrix" values="0 0 0 0 0 0 0 0 0 0 0 0 0 0 0 0 0 0 127 0" result="hardAlpha"/>
<feOffset dx="-6" dy="9"/>
<feGaussianBlur stdDeviation="9.5"/>
<feComposite in2="hardAlpha" operator="arithmetic" k2="-1" k3="1"/>
<feColorMatrix type="matrix" values="0 0 0 0 0 0 0 0 0 0 0 0 0 0 0 0 0 0 0.8 0"/>
<feBlend mode="normal" in2="shape" result="effect1_innerShadow"/>
</filter>
<clipPath id="clip0">
<rect width="402" height="617.511" fill="white" transform="translate(-23 -52)"/>
</clipPath>
</defs>
</svg>
