<svg width="20" height="20" viewBox="0 0 20 20" fill="none" xmlns="http://www.w3.org/2000/svg">
<path fill-rule="evenodd" clip-rule="evenodd" d="M11.8179 10L18.623 3.19496C19.1257 2.69226 19.1257 1.87972 18.623 1.37702C18.1203 0.874326 17.3077 0.874326 16.805 1.37702L10 8.18207L3.19496 1.37702C2.69226 0.874326 1.87972 0.874326 1.37702 1.37702C0.874326 1.87972 0.874326 2.69226 1.37702 3.19496L8.18206 10L1.37702 16.805C0.874326 17.3077 0.874326 18.1203 1.37702 18.623C1.62773 18.8737 1.95686 18.9997 2.28599 18.9997C2.61512 18.9997 2.94425 18.8737 3.19496 18.623L10 11.8179L16.805 18.623C17.0557 18.8737 17.3849 18.9997 17.714 18.9997C18.0431 18.9997 18.3723 18.8737 18.623 18.623C19.1257 18.1203 19.1257 17.3077 18.623 16.805L11.8179 10Z" stroke="white"/>
</svg>
