<svg width="20" height="20" viewBox="0 0 20 20" fill="none" xmlns="http://www.w3.org/2000/svg">
<path fill-rule="evenodd" clip-rule="evenodd" d="M19.9962 9.72009C19.8479 4.32667 15.4292 0 10 0C4.47715 0 0 4.47715 0 10C0 15.5228 4.47715 20 10 20C11.4515 20 12.8612 19.6899 14.1542 19.0987C14.6564 18.8691 14.8774 18.2757 14.6478 17.7734C14.4181 17.2712 13.8248 17.0502 13.3225 17.2798C12.2893 17.7523 11.1631 18 10 18C5.58172 18 2 14.4183 2 10C2 5.58172 5.58172 2 10 2C14.4183 2 18 5.58172 18 10V11L17.9947 11.1689C17.9282 12.2246 17.2448 13 16.5 13C15.716 13 15 12.1408 15 11V10L14.9954 9.78311C14.8818 7.12231 12.6888 5 10 5C7.23858 5 5 7.23858 5 10C5 12.7614 7.23858 15 10 15C11.4582 15 12.7706 14.3758 13.6839 13.3803C14.314 14.357 15.3269 15 16.5 15C18.4774 15 20 13.1729 20 11V10L19.9962 9.72009ZM7 10C7 8.34315 8.34315 7 10 7C11.6569 7 13 8.34315 13 10C13 11.6569 11.6569 13 10 13C8.34315 13 7 11.6569 7 10Z" fill="#292929"/>
</svg>
