<svg width="17" height="18" viewBox="0 0 17 18" fill="none" xmlns="http://www.w3.org/2000/svg">
<path d="M6.18486 4.54451L3.95832 0.810043C3.36459 -0.0862299 2.72136 -0.0613333 2.47396 0.0631491C-0.494759 2.30383 -0.123731 3.05076 0.24742 4.54451C0.517476 5.63139 3.47255 10.1211 5.44268 12.3869C7.38249 14.6179 9 16.1214 11.1327 16.8051C12.7627 17.3277 13.3592 17.552 15.4621 16.1214C17.3694 14.8239 17.1939 13.9439 16.5754 13.5073C15.9569 13.0706 14.9697 12.2875 13.7303 11.5769C12.9881 11.1513 12.3552 11.6603 11.8749 11.9503C10.0194 13.0706 9.52467 12.3869 9.15358 12.0135C9.15358 12.0135 4.55206 7.68147 5.44268 6.7852C6.3333 5.88892 6.30856 4.91796 6.18486 4.54451Z" fill="#292929"/>
</svg>
