<svg width="20" height="21" viewBox="0 0 20 21" fill="none" xmlns="http://www.w3.org/2000/svg">
<path fill-rule="evenodd" clip-rule="evenodd" d="M7.5547 7.87605C7.8329 7.69003 8 7.37687 8 7.04153V3.02966C8 1.36788 6.65685 0.020752 5 0.020752H1C0.447715 0.020752 0 0.469796 0 1.02372C0 10.9944 9.05887 20.0801 19 20.0801C19.5523 20.0801 20 19.6311 20 19.0771V15.0653C20 13.4035 18.6569 12.0564 17 12.0564H13C12.6656 12.0564 12.3534 12.224 12.1679 12.503L10.2626 15.3695C8.18739 14.0237 6.36925 12.2461 4.97074 10.1998L4.69668 9.78705L7.5547 7.87605ZM13.5352 14.0623H17C17.5523 14.0623 18 14.5113 18 15.0651V18.0386C16.0628 17.9041 14.1721 17.3846 12.4087 16.5607L12.0041 16.3653L13.5352 14.0623ZM2.03467 2.02669H5C5.55228 2.02669 6 2.47573 6 3.02966V6.50476L3.70338 8.04038C2.76882 6.15736 2.17903 4.11914 2.03467 2.02669Z" fill="#292929"/>
</svg>
