<svg width="320" height="566" fill="none" xmlns="http://www.w3.org/2000/svg"><g clip-path="url(#clip0)"><path d="M233 76.5V33l36.5-21L306 32.73V76.5l-36.5 21-36.5-21z" stroke="#797963"/><path d="M233 96.5V53l36.5-21L306 52.73V96.5l-36.5 21-36.5-21zM160-51.422l36.5 21.088v42.179L160 32.934l-36.5-21.09v-42.178L160-51.422zm0 255.999l36.5 21.089v42.179L160 288.934l-36.5-21.089v-42.179l36.5-21.089zm0-127.999l36.5 21.088v42.179L160 160.934l-36.5-21.089V97.666L160 76.578zm0 255.999l36.5 21.089v42.179L160 416.934l-36.5-21.089v-42.179l36.5-21.089z" stroke="#797963"/><path d="M160-31.422l36.5 21.088v42.179L160 52.934l-36.5-21.09v-42.178L160-31.422zm0 255.999l36.5 21.089v42.179L160 308.934l-36.5-21.089v-42.179l36.5-21.089zm0-127.999l36.5 21.088v42.179L160 180.934l-36.5-21.089v-42.179L160 96.578zm0 255.999l36.5 21.089v42.179L160 436.934l-36.5-21.089v-42.179l36.5-21.089z" stroke="#797963"/><path d="M160 76.578l36.5 21.088v42.179L160 160.934l-36.5-21.089V97.666L160 76.578zm0 255.999l36.5 21.089v42.179L160 416.934l-36.5-21.089v-42.179l36.5-21.089zm0-128l36.5 21.089v42.179L160 288.934l-36.5-21.089v-42.179l36.5-21.089zm0 256l36.5 21.089v42.179L160 544.934l-36.5-21.089v-42.179l36.5-21.089z" stroke="#797963"/><path d="M160 96.578l36.5 21.088v42.179L160 180.934l-36.5-21.089v-42.179L160 96.578zm0 255.999l36.5 21.089v42.179L160 436.934l-36.5-21.089v-42.179l36.5-21.089zm0-128l36.5 21.089v42.179L160 308.934l-36.5-21.089v-42.179l36.5-21.089zm0 256l36.5 21.089v42.179L160 564.934l-36.5-21.089v-42.179l36.5-21.089zm73-531.999l36.5 21.088v42.179L233 32.934l-36.5-21.09v-42.178L233-51.422zm0 255.999l36.5 21.089v42.179L233 288.934l-36.5-21.089v-42.179l36.5-21.089zm0-127.999l36.5 21.088v42.179L233 160.934l-36.5-21.089V97.666L233 76.578zm0 255.999l36.5 21.089v42.179L233 416.934l-36.5-21.089v-42.179l36.5-21.089z" stroke="#797963"/><path d="M233-31.422l36.5 21.088v42.179L233 52.934l-36.5-21.09v-42.178L233-31.422zm0 255.999l36.5 21.089v42.179L233 308.934l-36.5-21.089v-42.179l36.5-21.089zm0-127.999l36.5 21.088v42.179L233 180.934l-36.5-21.089v-42.179L233 96.578zm0 255.999l36.5 21.089v42.179L233 436.934l-36.5-21.089v-42.179l36.5-21.089z" stroke="#797963"/><path d="M233 76.578l36.5 21.088v42.179L233 160.934l-36.5-21.089V97.666L233 76.578zm0 255.999l36.5 21.089v42.179L233 416.934l-36.5-21.089v-42.179l36.5-21.089zm0-128l36.5 21.089v42.179L233 288.934l-36.5-21.089v-42.179l36.5-21.089zm0 256l36.5 21.089v42.179L233 544.934l-36.5-21.089v-42.179l36.5-21.089z" stroke="#797963"/><path d="M233 96.578l36.5 21.088v42.179L233 180.934l-36.5-21.089v-42.179L233 96.578zm0 255.999l36.5 21.089v42.179L233 436.934l-36.5-21.089v-42.179l36.5-21.089zm0-128l36.5 21.089v42.179L233 308.934l-36.5-21.089v-42.179l36.5-21.089zm0 256l36.5 21.089v42.179L233 564.934l-36.5-21.089v-42.179l36.5-21.089zm73-531.999l36.5 21.088v42.179L306 32.934l-36.5-21.09v-42.178L306-51.422zm0 255.999l36.5 21.089v42.179L306 288.934l-36.5-21.089v-42.179l36.5-21.089zm0-127.999l36.5 21.088v42.179L306 160.934l-36.5-21.089V97.666L306 76.578z" stroke="#797963"/><path d="M306 224.577l36.5 21.089v42.179L306 308.934l-36.5-21.089v-42.179l36.5-21.089zm0-127.999l36.5 21.088v42.179L306 180.934l-36.5-21.089v-42.179L306 96.578zm0 255.999l36.5 21.089v42.179L306 436.934l-36.5-21.089v-42.179l36.5-21.089z" stroke="#797963"/><path d="M306 76.578l36.5 21.088v42.179L306 160.934l-36.5-21.089V97.666L306 76.578zm14 262.511L306 331l-37 21.378v42.755l37 21.378 14-8.089m-14-203.845l36.5 21.089v42.179L306 288.934l-36.5-21.089v-42.179l36.5-21.089zm0 256l36.5 21.089v42.179L306 544.934l-36.5-21.089v-42.179l36.5-21.089z" stroke="#797963"/><path d="M306 96.578l36.5 21.088v42.179L306 180.934l-36.5-21.089v-42.179L306 96.578zm0 255.999l36.5 21.089v42.179L306 436.934l-36.5-21.089v-42.179l36.5-21.089zm0-128l36.5 21.089v42.179L306 308.934l-36.5-21.089v-42.179l36.5-21.089zm0 256l36.5 21.089v42.179L306 564.934l-36.5-21.089v-42.179l36.5-21.089zM87-51.422l36.5 21.088v42.179L87 32.934l-36.5-21.09v-42.178L87-51.422zm0 255.999l36.5 21.089v42.179L87 288.934l-36.5-21.089v-42.179L87 204.577zm0-127.999l36.5 21.088v42.179L87 160.934l-36.5-21.089V97.666L87 76.578zm0 255.999l36.5 21.089v42.179L87 416.934l-36.5-21.089v-42.179L87 332.577z" stroke="#797963"/><path d="M87-31.422l36.5 21.088v42.179L87 52.934l-36.5-21.09v-42.178L87-31.422zm0 255.999l36.5 21.089v42.179L87 308.934l-36.5-21.089v-42.179L87 224.577zm0-127.999l36.5 21.088v42.179L87 180.934l-36.5-21.089v-42.179L87 96.578zm0 255.999l36.5 21.089v42.179L87 436.934l-36.5-21.089v-42.179L87 352.577z" stroke="#797963"/><path d="M87 76.578l36.5 21.088v42.179L87 160.934l-36.5-21.089V97.666L87 76.578zm0 255.999l36.5 21.089v42.179L87 416.934l-36.5-21.089v-42.179L87 332.577zm0-128l36.5 21.089v42.179L87 288.934l-36.5-21.089v-42.179L87 204.577zm0 256l36.5 21.089v42.179L87 544.934l-36.5-21.089v-42.179L87 460.577z" stroke="#797963"/><path d="M87 96.578l36.5 21.088v42.179L87 180.934l-36.5-21.089v-42.179L87 96.578zm0 255.999l36.5 21.089v42.179L87 436.934l-36.5-21.089v-42.179L87 352.577zm0-128l36.5 21.089v42.179L87 308.934l-36.5-21.089v-42.179L87 224.577zm0 256l36.5 21.089v42.179L87 564.934l-36.5-21.089v-42.179L87 480.577zM14-51.422l36.5 21.088v42.179L14 32.934l-36.5-21.09v-42.178L14-51.422zm0 255.999l36.5 21.089v42.179L14 288.934l-36.5-21.089v-42.179L14 204.577zm0-127.999l36.5 21.088v42.179L14 160.934l-36.5-21.089V97.666L14 76.578zm0 255.999l36.5 21.089v42.179L14 416.934l-36.5-21.089v-42.179L14 332.577z" stroke="#797963"/><path d="M14-31.422l36.5 21.088v42.179L14 52.934l-36.5-21.09v-42.178L14-31.422zm0 255.999l36.5 21.089v42.179L14 308.934l-36.5-21.089v-42.179L14 224.577zm0-127.999l36.5 21.088v42.179L14 180.934l-36.5-21.089v-42.179L14 96.578zm0 255.999l36.5 21.089v42.179L14 436.934l-36.5-21.089v-42.179L14 352.577z" stroke="#797963"/><path d="M14 76.578l36.5 21.088v42.179L14 160.934l-36.5-21.089V97.666L14 76.578zm0 255.999l36.5 21.089v42.179L14 416.934l-36.5-21.089v-42.179L14 332.577zm0-128l36.5 21.089v42.179L14 288.934l-36.5-21.089v-42.179L14 204.577zm0 256l36.5 21.089v42.179L14 544.934l-36.5-21.089v-42.179L14 460.577z" stroke="#797963"/><path d="M14 224.577l36.5 21.089v42.179L14 308.934l-36.5-21.089v-42.179L14 224.577zm0 256l36.5 21.089v42.179L14 564.934l-36.5-21.089v-42.179L14 480.577zM87 76.5V33l36.5-21L160 32.73V76.5l-36.5 21-36.5-21zm0 256V289l36.5-21 36.5 20.729V332.5l-36.5 21-36.5-21zm0-128V161l36.5-21 36.5 20.729V204.5l-36.5 21-36.5-21zm0 256V417l36.5-21 36.5 20.729V460.5l-36.5 21-36.5-21z" stroke="#797963"/><path d="M87 96.5V53l36.5-21L160 52.73V96.5l-36.5 21-36.5-21zm0 256V309l36.5-21 36.5 20.729V352.5l-36.5 21-36.5-21zm0-128V181l36.5-21 36.5 20.729V224.5l-36.5 21-36.5-21zm0 256V437l36.5-21 36.5 20.729V480.5l-36.5 21-36.5-21zm146-148V289l36.5-21 36.5 20.729V332.5l-36.5 21-36.5-21zm0-128V161l36.5-21 36.5 20.729V204.5l-36.5 21-36.5-21zm0 256V417l36.5-21 36.5 20.729V460.5l-36.5 21-36.5-21z" stroke="#797963"/><path d="M233 352.5V309l36.5-21 36.5 20.729V352.5l-36.5 21-36.5-21zm0-128V181l36.5-21 36.5 20.729V224.5l-36.5 21-36.5-21zm0 256V437l36.5-21 36.5 20.729V480.5l-36.5 21-36.5-21zM14 76.5V33l36.5-21L87 32.73V76.5l-36.5 21-36.5-21zm0 256V289l36.5-21L87 288.729V332.5l-36.5 21-36.5-21zm0-128V161l36.5-21L87 160.729V204.5l-36.5 21-36.5-21zm0 256V417l36.5-21L87 416.729V460.5l-36.5 21-36.5-21z" stroke="#797963"/><path d="M14 96.5V53l36.5-21L87 52.73V96.5l-36.5 21-36.5-21zm0 256V309l36.5-21L87 308.729V352.5l-36.5 21-36.5-21zm0-128V181l36.5-21L87 180.729V224.5l-36.5 21-36.5-21z" stroke="#797963"/><g filter="url(#filter0_i)"><path d="M14 480.5V437l36.5-21L87 436.729V480.5l-36.5 21-36.5-21z" fill="#292929"/></g><path d="M14 480.5V437l36.5-21L87 436.729V480.5l-36.5 21-36.5-21zm146-404V33l36.5-21L233 32.73V76.5l-36.5 21-36.5-21zm0 128V161l36.5-21 36.5 20.729V204.5l-36.5 21-36.5-21zm0 256V417l36.5-21 36.5 20.729V460.5l-36.5 21-36.5-21z" stroke="#797963"/><path d="M160 96.5V53l36.5-21L233 52.73V96.5l-36.5 21-36.5-21zm0 256V309l36.5-21 36.5 20.729V352.5l-36.5 21-36.5-21zm0-128V181l36.5-21 36.5 20.729V224.5l-36.5 21-36.5-21zm0 256V437l36.5-21 36.5 20.729V480.5l-36.5 21-36.5-21z" stroke="#797963"/><g filter="url(#filter1_i)"><path d="M343-10.622v42.755l-37 21.378-37-21.378v-42.755L306-32l37 21.378z" fill="#292929"/></g><path d="M306-31.422l36.5 21.088v42.179L306 52.934l-36.5-21.09v-42.178L306-31.422z" stroke="#797963"/><g filter="url(#filter2_i)"><path d="M306 96.5V53l36.5-21L379 52.73V96.5l-36.5 21-36.5-21z" fill="#292929"/></g><path d="M306 96.5V53l36.5-21L379 52.73V96.5l-36.5 21-36.5-21z" stroke="#797963"/><g filter="url(#filter3_i)"><path d="M51 117.378v42.755l-37 21.378-37-21.378v-42.755L14 96l37 21.378z" fill="#292929"/></g><path d="M14 96.578l36.5 21.088v42.179L14 180.934l-36.5-21.089v-42.179L14 96.578z" stroke="#797963"/><g filter="url(#filter4_i)"><path d="M160 332.5V289l36.5-21 36.5 20.729V332.5l-36.5 21-36.5-21z" fill="#292929"/></g><path d="M160 332.5V289l36.5-21 36.5 20.729V332.5l-36.5 21-36.5-21z" stroke="#797963"/><g filter="url(#filter5_i)"><path d="M51 373.378v42.755l-37 21.378-37-21.378v-42.755L14 352l37 21.378z" fill="#292929"/></g><path d="M14 352.577l36.5 21.089v42.179L14 436.934l-36.5-21.089v-42.179L14 352.577z" stroke="#797963"/></g><defs><filter id="filter0_i" x="7.5" y="415.424" width="80" height="95.653" filterUnits="userSpaceOnUse" color-interpolation-filters="sRGB"><feFlood flood-opacity="0" result="BackgroundImageFix"/><feBlend in="SourceGraphic" in2="BackgroundImageFix" result="shape"/><feColorMatrix in="SourceAlpha" values="0 0 0 0 0 0 0 0 0 0 0 0 0 0 0 0 0 0 127 0" result="hardAlpha"/><feOffset dx="-6" dy="9"/><feGaussianBlur stdDeviation="9.5"/><feComposite in2="hardAlpha" operator="arithmetic" k2="-1" k3="1"/><feColorMatrix values="0 0 0 0 0 0 0 0 0 0 0 0 0 0 0 0 0 0 0.8 0"/><feBlend in2="shape" result="effect1_innerShadow"/></filter><filter id="filter1_i" x="269" y="-32" width="80" height="99.511" filterUnits="userSpaceOnUse" color-interpolation-filters="sRGB"><feFlood flood-opacity="0" result="BackgroundImageFix"/><feBlend in="SourceGraphic" in2="BackgroundImageFix" result="shape"/><feColorMatrix in="SourceAlpha" values="0 0 0 0 0 0 0 0 0 0 0 0 0 0 0 0 0 0 127 0" result="hardAlpha"/><feOffset dx="6" dy="14"/><feGaussianBlur stdDeviation="9.5"/><feComposite in2="hardAlpha" operator="arithmetic" k2="-1" k3="1"/><feColorMatrix values="0 0 0 0 0 0 0 0 0 0 0 0 0 0 0 0 0 0 0.8 0"/><feBlend in2="shape" result="effect1_innerShadow"/></filter><filter id="filter2_i" x="305.5" y="31.424" width="80" height="100.653" filterUnits="userSpaceOnUse" color-interpolation-filters="sRGB"><feFlood flood-opacity="0" result="BackgroundImageFix"/><feBlend in="SourceGraphic" in2="BackgroundImageFix" result="shape"/><feColorMatrix in="SourceAlpha" values="0 0 0 0 0 0 0 0 0 0 0 0 0 0 0 0 0 0 127 0" result="hardAlpha"/><feOffset dx="6" dy="14"/><feGaussianBlur stdDeviation="9.5"/><feComposite in2="hardAlpha" operator="arithmetic" k2="-1" k3="1"/><feColorMatrix values="0 0 0 0 0 0 0 0 0 0 0 0 0 0 0 0 0 0 0.8 0"/><feBlend in2="shape" result="effect1_innerShadow"/></filter><filter id="filter3_i" x="-29" y="96" width="80" height="94.511" filterUnits="userSpaceOnUse" color-interpolation-filters="sRGB"><feFlood flood-opacity="0" result="BackgroundImageFix"/><feBlend in="SourceGraphic" in2="BackgroundImageFix" result="shape"/><feColorMatrix in="SourceAlpha" values="0 0 0 0 0 0 0 0 0 0 0 0 0 0 0 0 0 0 127 0" result="hardAlpha"/><feOffset dx="-6" dy="9"/><feGaussianBlur stdDeviation="9.5"/><feComposite in2="hardAlpha" operator="arithmetic" k2="-1" k3="1"/><feColorMatrix values="0 0 0 0 0 0 0 0 0 0 0 0 0 0 0 0 0 0 0.8 0"/><feBlend in2="shape" result="effect1_innerShadow"/></filter><filter id="filter4_i" x="159.5" y="267.424" width="80" height="100.653" filterUnits="userSpaceOnUse" color-interpolation-filters="sRGB"><feFlood flood-opacity="0" result="BackgroundImageFix"/><feBlend in="SourceGraphic" in2="BackgroundImageFix" result="shape"/><feColorMatrix in="SourceAlpha" values="0 0 0 0 0 0 0 0 0 0 0 0 0 0 0 0 0 0 127 0" result="hardAlpha"/><feOffset dx="6" dy="14"/><feGaussianBlur stdDeviation="9.5"/><feComposite in2="hardAlpha" operator="arithmetic" k2="-1" k3="1"/><feColorMatrix values="0 0 0 0 0 0 0 0 0 0 0 0 0 0 0 0 0 0 0.8 0"/><feBlend in2="shape" result="effect1_innerShadow"/></filter><filter id="filter5_i" x="-29" y="352" width="80" height="94.511" filterUnits="userSpaceOnUse" color-interpolation-filters="sRGB"><feFlood flood-opacity="0" result="BackgroundImageFix"/><feBlend in="SourceGraphic" in2="BackgroundImageFix" result="shape"/><feColorMatrix in="SourceAlpha" values="0 0 0 0 0 0 0 0 0 0 0 0 0 0 0 0 0 0 127 0" result="hardAlpha"/><feOffset dx="-6" dy="9"/><feGaussianBlur stdDeviation="9.5"/><feComposite in2="hardAlpha" operator="arithmetic" k2="-1" k3="1"/><feColorMatrix values="0 0 0 0 0 0 0 0 0 0 0 0 0 0 0 0 0 0 0.8 0"/><feBlend in2="shape" result="effect1_innerShadow"/></filter><clipPath id="clip0"><path fill="#fff" transform="translate(-23 -52)" d="M0 0h402v617.511H0z"/></clipPath></defs></svg>