<svg width="20" height="20" fill="none" xmlns="http://www.w3.org/2000/svg"><path fill-rule="evenodd" clip-rule="evenodd" d="M8.825 0h2.349c1.675.004 2.06.019 2.949.06 1.064.048 1.791.217 2.427.464a4.901 4.901 0 011.772 1.153 4.902 4.902 0 011.153 1.772c.247.636.416 1.363.465 2.427.047 1.031.06 1.384.06 3.86v.527c0 2.476-.013 2.829-.06 3.86-.049 1.064-.218 1.791-.465 2.427a4.902 4.902 0 01-1.153 1.772 4.902 4.902 0 01-1.772 1.153c-.636.247-1.363.416-2.427.465-1.031.047-1.384.06-3.86.06h-.527c-2.476 0-2.829-.013-3.86-.06-1.064-.049-1.791-.218-2.427-.465a4.902 4.902 0 01-1.772-1.153A4.901 4.901 0 01.524 16.55c-.247-.636-.416-1.363-.465-2.427-.04-.89-.055-1.274-.059-2.95V8.826c.004-1.675.019-2.06.06-2.949.048-1.064.217-1.791.464-2.427a4.902 4.902 0 011.153-1.772A4.902 4.902 0 013.45.524C4.085.277 4.812.108 5.876.059 6.766.02 7.15.004 8.826 0h2.348-2.349zm1.908 1.801H9.266c-2.007.002-2.359.015-3.308.058-.975.045-1.504.208-1.857.344-.466.182-.8.399-1.15.749-.35.35-.566.683-.748 1.15-.136.352-.3.881-.344 1.856-.043.95-.056 1.3-.058 3.308v1.467c.002 2.007.015 2.358.058 3.308.045.975.208 1.504.344 1.857.182.466.399.8.749 1.15.35.35.683.566 1.15.748.352.136.881.3 1.856.344 1.055.048 1.371.058 4.041.058 2.67 0 2.987-.01 4.042-.058.975-.045 1.504-.208 1.857-.345.466-.18.8-.398 1.15-.748.35-.35.566-.683.748-1.15.136-.352.3-.881.344-1.856.048-1.055.058-1.371.058-4.042 0-2.67-.01-2.986-.058-4.04-.045-.976-.208-1.505-.345-1.858a3.097 3.097 0 00-.748-1.15 3.098 3.098 0 00-1.15-.748c-.352-.136-.881-.3-1.856-.344-.95-.043-1.3-.056-3.308-.058zM9.999 5a5 5 0 110 10 5 5 0 010-10zm0 1.755a3.246 3.246 0 100 6.491 3.246 3.246 0 000-6.491zm5.417-3.422a1.25 1.25 0 110 2.5 1.25 1.25 0 010-2.5z" fill="#292929"/></svg>