<svg width="20" height="21" fill="none" xmlns="http://www.w3.org/2000/svg"><path fill-rule="evenodd" clip-rule="evenodd" d="M7.555 7.876c.278-.186.445-.5.445-.834V3.03A3.004 3.004 0 005 .02H1c-.552 0-1 .45-1 1.004 0 9.97 9.059 19.056 19 19.056.552 0 1-.449 1-1.003v-4.012a3.004 3.004 0 00-3-3.009h-4a1 1 0 00-.832.447l-1.905 2.867A18.914 18.914 0 014.97 10.2l-.274-.413 2.858-1.911zm5.98 6.186H17c.552 0 1 .45 1 1.003v2.974c-1.937-.135-3.828-.654-5.591-1.478l-.405-.196 1.531-2.303zM2.035 2.027H5c.552 0 1 .449 1 1.003v3.475L3.703 8.04C2.77 6.157 2.18 4.12 2.035 2.027z" fill="#292929"/></svg>